<svg xmlns="http://www.w3.org/2000/svg" width="72" height="72" fill="none"><path fill="#E23D8F" d="M50.786 10.928c-7.811 0-14.143 6.333-14.143 14.143 0 7.811 6.332 14.143 14.143 14.143 7.81 0 14.142-6.332 14.142-14.143 0-7.81-6.332-14.143-14.142-14.143z"/><path fill="#2D333A" d="M35.357 57.857a.643.643 0 0 1-.643-.643V18A.643.643 0 0 1 36 18v39.214a.643.643 0 0 1-.643.643z"/><path fill="#2D333A" d="M41.83 24.452a.646.646 0 0 1-.454-.188l-6.019-6.021-6.02 6.02a.643.643 0 0 1-.909-.91l6.474-6.473c.25-.25.658-.25.909 0l6.474 6.474a.643.643 0 0 1-.454 1.098zm6.361 19.308a.643.643 0 0 1-.455-1.097l6.02-6.02-6.02-6.02a.643.643 0 0 1 .909-.909l6.473 6.474a.643.643 0 0 1 0 .909l-6.473 6.473a.637.637 0 0 1-.454.19z"/><path fill="#2D333A" d="M40.5 57.857a.643.643 0 0 1-.643-.643V46.93c0-6.027 4.902-10.93 10.929-10.93H54a.643.643 0 0 1 0 1.286h-3.214c-5.318 0-9.643 4.325-9.643 9.643v10.285a.643.643 0 0 1-.643.643zM22.523 43.76a.646.646 0 0 1-.455-.188l-6.473-6.474a.643.643 0 0 1 0-.909l6.473-6.474a.643.643 0 0 1 .91.91l-6.02 6.018 6.02 6.02a.643.643 0 0 1-.455 1.096z"/><path fill="#2D333A" d="M30.26 57.857a.643.643 0 0 1-.643-.643V46.93c0-5.318-4.326-9.643-9.643-9.643h-3.26a.643.643 0 0 1 0-1.286h3.26C26 36 30.902 40.902 30.902 46.928v10.286a.642.642 0 0 1-.643.643z"/></svg>