<svg xmlns="http://www.w3.org/2000/svg" width="72" height="72" fill="none"><path fill="#F4C90C" d="M50.786 10.928a14.143 14.143 0 1 0 0 28.286 14.143 14.143 0 0 0 0-28.285z"/><path fill="#2D333A" d="M40.384 56.494 30.1 53.987a.661.661 0 1 1 .308-1.286l10.286 2.572a1.055 1.055 0 0 0 .81-.103 1.285 1.285 0 0 0 .604-.823l1.119-4.294a2.572 2.572 0 0 1 2.365-1.916h4.745a1.209 1.209 0 0 0 1.08-1.286v-4.333a2.7 2.7 0 0 1 1.607-2.43l1.491-.655a1.286 1.286 0 0 0 .772-.862 1.503 1.503 0 0 0-.232-1.285l-2.983-3.858a2.854 2.854 0 0 1-.578-1.632C51.17 24.068 45.373 18 38.3 18h-2.944a.643.643 0 1 1 0-1.286H38.3c7.715 0 14.143 6.609 14.477 15.056.017.327.123.643.31.913l2.93 3.857a2.765 2.765 0 0 1 .463 2.366 2.571 2.571 0 0 1-1.44 1.722l-1.491.656a1.414 1.414 0 0 0-.836 1.286v4.255a2.481 2.481 0 0 1-2.365 2.572h-4.745a1.208 1.208 0 0 0-1.118.964l-1.119 4.295a2.57 2.57 0 0 1-1.209 1.594 2.172 2.172 0 0 1-1.774.244z"/><path fill="#2D333A" d="M33.917 30.78a.643.643 0 0 1-.643-.643 5.554 5.554 0 0 0-5.631-5.439.643.643 0 1 1 0-1.285 6.827 6.827 0 0 1 6.917 6.724.643.643 0 0 1-.643.643zm-3.06 13.526h-6.171a.643.643 0 1 1 0-1.286h6.171a.643.643 0 1 1 0 1.285z"/><path fill="#2D333A" d="M30.176 48.857h-5.143c-.45 0-1.505-.193-1.505-1.967v-3.497a6.788 6.788 0 0 0-2.75-5.233 10.44 10.44 0 0 1-4.064-8.254 10.787 10.787 0 0 1 10.929-10.62 10.787 10.787 0 0 1 10.928 10.62 10.415 10.415 0 0 1-4.075 8.254 7.225 7.225 0 0 0-2.829 5.4v3.857a1.441 1.441 0 0 1-1.491 1.44zm-2.572-28.286A9.502 9.502 0 0 0 18 29.906a9.18 9.18 0 0 0 3.574 7.251 8.061 8.061 0 0 1 3.24 6.236v3.497c0 .681.154.681.219.681h5.143c.193 0 .205-.09.205-.192V43.52a8.46 8.46 0 0 1 3.33-6.428 9.18 9.18 0 0 0 3.575-7.187 9.502 9.502 0 0 0-9.643-9.335h-.039z"/></svg>