<svg xmlns="http://www.w3.org/2000/svg" width="72" height="72" fill="none"><path fill="#648DFF" d="M50.786 10.928a14.143 14.143 0 1 0 0 28.286 14.143 14.143 0 0 0 0-28.285z"/><path fill="#2D333A" fill-rule="evenodd" d="M41.143 24.429v-1.646a.978.978 0 0 0-1.029-.926h-6.943a.977.977 0 0 0-1.028.926v1.646H21.214a4.5 4.5 0 0 0-4.5 4.5V49.5a4.5 4.5 0 0 0 4.5 4.5h30.857a4.5 4.5 0 0 0 4.5-4.5V28.929a4.5 4.5 0 0 0-4.5-4.5H41.143zm-7.715 0h6.43v-1.286h-6.43v1.286zm3.215 18.192a5.03 5.03 0 0 1-1.479-.192L18 37.218V49.5a3.214 3.214 0 0 0 3.214 3.214h30.857a3.215 3.215 0 0 0 3.215-3.214V37.218l-17.165 5.21c-.48.136-.979.201-1.478.193zm18.643-6.806-17.55 5.328a3.73 3.73 0 0 1-2.186 0L18 35.815V28.93a3.214 3.214 0 0 1 3.214-3.215h30.857a3.214 3.214 0 0 1 3.215 3.215v6.886z" clip-rule="evenodd"/></svg>